<svg version="1.2" baseProfile="tiny-ps" xmlns="http://www.w3.org/2000/svg" viewBox="0 0 245 336" width="245" height="336">
	<title>5236613-ai</title>
	<style>
		tspan { white-space:pre }
		.shp0 { fill: #8b5cf6 } 
	</style>
	<g id="BACKGROUND">
	</g>
	<g id="OBJECTS">
		<g id="&lt;Group&gt;">
			<g id="&lt;Group&gt;">
				<path id="&lt;Path&gt;" class="shp0" d="M122.04 6.47L86.88 6.47L48.85 6.47C25.64 6.47 6.82 25.29 6.82 48.5L6.82 245.42C68.88 206.24 91.1 156.31 97.94 135.89L78.14 150.28L88.59 118.13L61.24 98.27L95.04 98.27L105.49 66.13L115.93 98.27L149.73 98.27L122.39 118.13L132.83 150.28L111.41 134.72C104.74 163.81 77.43 263.68 6.82 319.27C6.82 326.07 12.34 331.58 19.14 331.58L74.57 331.58C81.37 331.58 86.88 326.07 86.88 319.27L86.88 256.35C86.88 250.99 91.23 246.65 96.59 246.65L122.04 246.65C188.36 246.65 242.13 192.88 242.13 126.56L242.13 126.56C242.13 60.24 188.36 6.47 122.04 6.47Z" />
			</g>
		</g>
	</g>
</svg>